<?xml version="1.0" encoding="UTF-8" standalone="no"?>
<!-- Created with Inkscape (http://www.inkscape.org/) -->

<svg
   version="1.1"
   id="svg2"
   width="1333"
   height="800"
   viewBox="0 0 1333 800"
   sodipodi:docname="fulver-dark-text.inkscape.svg"
   inkscape:version="1.2.2 (b0a8486541, 2022-12-01)"
   inkscape:export-filename="fulver-light-text.inkscape.svg"
   inkscape:export-xdpi="96"
   inkscape:export-ydpi="96"
   xmlns:inkscape="http://www.inkscape.org/namespaces/inkscape"
   xmlns:sodipodi="http://sodipodi.sourceforge.net/DTD/sodipodi-0.dtd"
   xmlns="http://www.w3.org/2000/svg"
   xmlns:svg="http://www.w3.org/2000/svg">
  <defs
     id="defs6" />
  <sodipodi:namedview
     id="namedview4"
     pagecolor="#ffffff"
     bordercolor="#000000"
     borderopacity="0.25"
     inkscape:showpageshadow="2"
     inkscape:pageopacity="1"
     inkscape:pagecheckerboard="0"
     inkscape:deskcolor="#ffffff"
     showgrid="false"
     inkscape:zoom="1"
     inkscape:cx="777"
     inkscape:cy="493.5"
     inkscape:window-width="2508"
     inkscape:window-height="1259"
     inkscape:window-x="0"
     inkscape:window-y="0"
     inkscape:window-maximized="1"
     inkscape:current-layer="svg2" />
  <rect
     style="fill:#f9f9f9;stroke-width:126.396"
     id="rect286"
     width="1332.9852"
     height="800.01886"
     x="0.01440877"
     y="-0.0165204" />
  <path
     id="path1580"
     style="display:inline;fill:#3d434f;fill-opacity:1;stroke-width:1.01756"
     d="M 1332.4902 1.6992188 L 1194.3574 2.375 C 1118.3842 2.7471927 819.14663 3.0525068 529.38477 3.0527344 L 2.5429688 3.0527344 L 2.5429688 401.42578 L 2.5429688 799.80078 L 667.51758 799.80078 L 1332.4902 799.80078 L 1332.4902 400.75 L 1332.4902 1.6992188 z M 218.58398 253.70312 C 236.83203 253.64776 254.65527 257.02641 271.09766 263.96094 C 288.17352 271.16263 292.36823 275.19195 291.09375 283.16211 C 290.21804 288.63848 288.93302 290.77359 285.10547 293.10742 C 280.67673 295.80782 275.3558 295.59334 267.8418 292.41211 C 248.28462 284.13213 233.47621 280.8457 215.72266 280.8457 C 196.73378 280.8457 178.75682 284.8068 163.82617 292.2793 C 131.44972 308.48307 108.83857 334.10683 98.9375 365.8125 C 94.626867 379.61621 93.81281 386.79519 94.375 406.08789 C 94.822221 421.43516 95.257684 425.03778 97.623047 432.94922 C 103.08622 451.22189 110.82396 465.7781 122.35156 479.46875 C 132.95629 492.06338 148.84292 504.19318 152.09766 502.18164 C 152.67264 501.82628 153.15256 498.01329 153.16406 493.70898 C 153.2013 479.80002 155.08444 456.0753 156.71289 449.00977 C 157.58512 445.22529 160.38414 437.83003 162.93359 432.57617 C 171.14765 415.6489 185.04624 404.33549 204.57422 398.68164 C 212.04597 396.51837 214.59449 396.33789 237.67773 396.33789 L 262.68359 396.33789 L 266.2793 399.08008 C 270.8376 402.55502 273.21484 407.54227 273.21484 413.63672 C 273.21484 420.02749 270.705 424.94925 265.79102 428.20117 C 261.86484 430.79939 261.10721 430.90576 241.27539 431.59766 C 209.26718 432.71437 201.92501 435.66668 195.32812 450.07617 C 192.38686 456.50074 191.57082 462.99445 189.89648 493.31641 C 189.03313 508.9515 188.79611 510.2839 185.77344 516.42383 C 182.43926 523.19651 176.99266 528.73845 170.76562 531.69336 C 168.82335 532.61504 163.94873 533.6054 159.93359 533.89453 C 152.91307 534.40008 152.3097 534.25705 144.17578 530.1543 C 132.38347 524.20625 121.90009 515.99905 108.85938 502.50977 C 92.319563 485.40101 82.002985 468.60009 74.857422 447.13086 C 62.56748 410.20506 65.255296 369.10821 82.171875 335.28516 C 92.031348 315.57211 111.59417 292.94988 128.21289 282.04297 C 156.5755 263.42853 188.17058 253.79541 218.58398 253.70312 z M 310.69336 294.07422 C 321.51784 294.07422 330.60561 305.27848 328.57227 316.11719 C 327.1563 323.66493 310.2446 338.25053 292.76758 346.99805 C 274.15382 356.31454 257.08627 360.26525 226.91602 362.23633 C 207.22653 363.52267 203.48151 364.03672 199.13672 366.05664 C 194.70449 368.11722 191.67715 374.20093 191.02148 382.36914 C 190.51178 388.71886 190.44529 388.84169 186.32422 390.91797 C 184.02463 392.07656 179.32711 395.01946 175.88672 397.45703 C 172.44632 399.89459 165.94138 405.87146 161.42969 410.73828 L 153.22656 419.58594 L 153.76758 398.29492 C 154.45772 371.19856 155.45118 363.43744 159.26562 355.2832 C 162.79087 347.74721 171.4687 338.73265 179.22852 334.54492 C 187.14603 330.2721 199.58604 327.69841 217.75781 326.57422 C 253.7127 324.34991 273.64829 318.80928 289.32422 306.6875 C 304.87347 294.66368 305.87301 294.07422 310.69336 294.07422 z M 503.69141 305.86133 C 522.64049 305.9055 531.52639 309.37359 533.73828 317.58789 C 535.40398 323.77382 534.01344 330.40187 530.17188 334.59375 L 526.91797 338.14648 L 514.28711 338.83008 C 497.45548 339.74101 496.00248 340.76225 494.51562 352.72266 L 493.86523 357.94922 L 504.375 358.64258 C 517.48391 359.50793 520.61906 360.47185 524.41992 364.80078 C 528.2484 369.16118 529.65148 377.66652 527.29102 382.20508 C 523.53182 389.43303 517.37965 391.75977 502.02539 391.75977 L 494.02344 391.75977 L 494.01758 433.73438 C 494.0139 460.90981 493.62021 477.14216 492.90039 479.77734 C 491.50271 484.89411 487.70005 489.99768 483.76758 492.03125 C 476.58613 495.74492 464.14693 494.62091 457.45117 489.6543 C 452.33097 485.85635 452.03968 483.21507 451.52734 435.89258 L 451.05273 392.00781 L 443.17969 391.55078 C 430.44976 390.81385 425.19216 385.21784 426.05273 373.32031 C 426.74226 363.78774 431.43138 360.04897 444.41797 358.67188 L 451.28711 357.94336 L 451.29492 354.24609 C 451.3222 341.12641 456.44894 327.48076 464.30469 319.625 C 474.04716 309.88253 485.67739 305.81933 503.69141 305.86133 z M 769.72852 305.92383 C 777.93811 305.93785 781.85257 307.31109 785.68945 311.5293 C 791.39703 317.80411 791.15053 313.97409 791.14453 396.54297 C 791.1411 440.82795 790.72623 475.17321 790.15234 478.67773 C 789.02029 485.59063 785.94131 489.59778 779.44922 492.60352 C 775.07948 494.62663 766.47204 495.01261 761.01367 493.42969 C 759.26906 492.92375 756.00202 490.51314 753.75391 488.07422 L 749.66602 483.64062 L 748.93359 461.86719 C 748.53094 449.89173 748.36454 412.62037 748.5625 379.04102 C 748.91257 319.65481 748.97963 317.88998 751.00977 314.42578 C 754.34878 308.72814 760.55709 305.90813 769.72852 305.92383 z M 342.45898 334.89844 C 343.88328 335.12392 345.22 335.63709 346.39062 336.45703 C 352.79025 340.9395 362.17167 369.3202 363.83008 389.21484 C 366.5026 421.2751 359.43969 448.5114 340.15234 480.5293 C 334.83596 489.35475 321.33745 505.24727 313.4082 512.01367 C 304.50425 519.61185 290.28005 529.21347 281.03125 533.87109 C 270.64001 539.10404 251.47234 545.21009 240.01172 546.9375 C 222.65732 549.55328 187.83234 547.94636 178.39062 544.09375 L 175.10352 542.75195 L 182.76953 537.08398 C 187.0825 533.8944 191.82392 529.31764 193.61133 526.61914 L 196.78906 521.82227 L 213.88672 521.55469 C 238.676 521.16605 254.56112 517.59797 271.01172 508.72461 C 300.7558 492.68087 319.08288 471.41104 330.14453 440.09375 C 335.18027 425.83677 336.40911 418.34562 336.41211 401.91016 C 336.41475 385.44499 334.9655 376.38031 329.99219 361.74219 C 326.11831 350.3401 325.91655 343.85275 329.31836 340.21094 C 333.11777 336.14343 338.18611 334.22198 342.45898 334.89844 z M 1246.2891 356.55273 C 1252.118 356.44719 1257.5992 357.63601 1261.8477 360.26172 C 1268.4013 364.31208 1270.5581 376.89708 1265.8789 383.7832 C 1262.197 389.20149 1256.4419 391.55004 1244.9805 392.3125 C 1233.0669 393.10504 1229.534 394.14263 1224.9004 398.21094 C 1218.348 403.96405 1218.2138 404.78776 1217.5 443.6543 C 1216.7939 482.1005 1216.6526 483.02136 1210.4883 489.18555 C 1208.7063 490.9676 1205.5501 492.89621 1203.4746 493.47266 C 1196.341 495.45387 1186.7511 494.22766 1182.0176 490.72852 C 1180.5498 489.64342 1178.2038 486.73646 1176.8047 484.26758 L 1174.2617 479.77734 L 1173.9648 426.13281 C 1173.6976 377.81799 1173.8356 372.15679 1175.3555 369.15039 C 1179.3981 361.15382 1184.6397 357.92578 1193.582 357.92578 C 1202.7964 357.92578 1210.811 362.70455 1212.9609 369.47852 C 1213.5256 371.25735 1214.0525 371.03592 1218.3457 367.2168 C 1225.8935 360.50224 1236.5742 356.72864 1246.2891 356.55273 z M 1067.9258 357.0625 C 1089.135 357.07807 1102.3815 361.96574 1114.8477 374.37891 C 1126.8278 386.30826 1132.0528 399.18323 1132.0098 416.66992 C 1131.9816 428.27945 1129.9914 433.27269 1124.2754 436.07812 C 1120.6521 437.8564 1117.1561 438.04493 1081.4082 438.39062 C 1055.4925 438.64124 1042.4883 439.12071 1042.4883 439.82227 C 1042.4883 442.81312 1045.1581 449.04915 1047.8223 452.28125 C 1052.7421 458.24996 1059.7563 461.17439 1070.5215 461.74219 C 1081.7039 462.33198 1087.5095 461.17315 1099.9805 455.86523 C 1114.9449 449.49606 1124.2096 450.58946 1128.2988 459.20703 C 1130.3898 463.61338 1130.4902 470.27865 1128.5234 474.08203 C 1124.901 481.08702 1111.8699 488.69725 1097.0176 492.48242 C 1090.3945 494.17038 1085.8899 494.51691 1071.5801 494.44141 C 1053.4794 494.34589 1051.4923 494.0527 1040.248 489.83008 C 1020.7193 482.49643 1007.1041 467.36134 1001.5898 446.85352 C 998.51167 435.40516 998.53353 416.50084 1001.6367 405.54297 C 1010.3795 374.67062 1034.4884 357.038 1067.9258 357.0625 z M 951.92578 357.74805 C 959.55953 357.8286 963.42425 359.50475 968.00391 364.7207 C 971.81359 369.05969 972.98868 374.39581 971.42188 380.25391 C 970.78273 382.64362 965.95395 393.8791 960.69336 405.22266 C 955.43276 416.56621 947.35768 434.09025 942.74805 444.16406 C 932.77557 465.95771 924.94287 481.7783 922.22266 485.625 C 921.13582 487.1619 918.21772 489.61026 915.73633 491.06445 C 912.17653 493.15063 909.56095 493.78379 903.33789 494.07227 C 889.2373 494.72592 882.70254 492.09696 876.74805 483.37109 C 873.69271 478.89373 836.19317 398.69909 830.49805 384.46289 C 827.18698 376.18618 827.11221 373.16879 830.07227 367.29883 C 833.51257 360.47647 839.04863 357.96337 849.73633 358.37305 C 859.45739 358.74568 863.53542 360.9453 867.89453 368.16211 C 869.40136 370.65679 877.13431 389.00966 885.07812 408.94727 C 893.02196 428.88488 899.902 445.3241 900.36914 445.47852 C 900.83627 445.63295 908.22054 428.30079 916.77734 406.96289 C 925.33416 385.62498 933.23455 366.94997 934.33398 365.46289 C 937.982 360.5287 944.50276 357.66965 951.92578 357.74805 z M 679.21875 358.19922 C 688.53883 358.18071 692.58079 359.9757 697.32812 366.24414 L 700.73828 370.74609 L 700.41016 426.2793 C 700.10766 477.20469 699.92853 482.08836 698.26953 485.125 C 692.67502 495.36528 675.03002 497.39916 666.42578 488.79492 C 664.52386 486.893 662.68593 484.21482 662.3418 482.84375 L 661.7168 480.34961 L 655.9668 484.24609 C 647.39698 490.05324 642.09957 492.49113 634.59375 494.08203 C 612.437 498.77827 585.24232 490.66437 574.07812 476.02734 C 569.76254 470.3693 565.17566 459.45025 564.18945 452.48633 C 562.67555 441.79629 562.55692 373.61264 564.04492 369.28711 C 565.49577 365.06961 569.597 360.81755 573.71484 359.26172 C 577.76357 357.732 590.13166 357.91861 594.08008 359.56836 C 599.31742 361.75666 602.66438 366.49606 603.33398 372.66992 C 603.65327 375.61389 604.33244 392.97479 604.84375 411.25 C 605.67205 440.85424 605.99307 444.9717 607.7793 449.00977 C 611.34982 457.08156 618.76719 460.95312 630.66406 460.95312 C 642.91095 460.95313 650.0721 457.29892 655.23242 448.41406 C 657.6715 444.21455 657.71179 443.72369 658.58594 406.96289 C 659.40662 372.45017 659.61831 369.51038 661.51562 366.26172 C 664.77105 360.68767 670.19665 358.21712 679.21875 358.19922 z " />
  <path
     style="display:inline;fill:#3d434f;fill-opacity:1;stroke-width:1.01756"
     d="m 1042.8934,409.6658 c -0.3013,-0.78504 0.4649,-3.78131 1.7026,-6.65839 6.3956,-14.86702 27.5174,-20.26561 39.1902,-10.01676 5.6547,4.96485 10.1323,15.46173 7.3486,17.22721 -0.7321,0.46426 -11.7626,0.85112 -24.5123,0.85969 -18.9629,0.0127 -23.2811,-0.24417 -23.7291,-1.41175 z"
     id="path1582" />
</svg>
