<?xml version="1.0" encoding="UTF-8" standalone="no"?>
<!-- Created with Inkscape (http://www.inkscape.org/) -->

<svg
   version="1.1"
   id="svg2"
   width="1024"
   height="1024"
   viewBox="0 0 1024 1024"
   sodipodi:docname="fulver-light.inkscape.svg"
   inkscape:version="1.2.2 (b0a8486541, 2022-12-01)"
   inkscape:export-filename="fulver-dark.inkscape.svg"
   inkscape:export-xdpi="96"
   inkscape:export-ydpi="96"
   xmlns:inkscape="http://www.inkscape.org/namespaces/inkscape"
   xmlns:sodipodi="http://sodipodi.sourceforge.net/DTD/sodipodi-0.dtd"
   xmlns="http://www.w3.org/2000/svg"
   xmlns:svg="http://www.w3.org/2000/svg">
  <defs
     id="defs6" />
  <sodipodi:namedview
     id="namedview4"
     pagecolor="#ffffff"
     bordercolor="#000000"
     borderopacity="0.25"
     inkscape:showpageshadow="2"
     inkscape:pageopacity="0.0"
     inkscape:pagecheckerboard="0"
     inkscape:deskcolor="#d1d1d1"
     showgrid="false"
     inkscape:zoom="1.0029297"
     inkscape:cx="512.49853"
     inkscape:cy="514.99123"
     inkscape:window-width="2508"
     inkscape:window-height="1259"
     inkscape:window-x="0"
     inkscape:window-y="0"
     inkscape:window-maximized="1"
     inkscape:current-layer="svg2" />
  <rect
     style="fill:#3d434f;fill-opacity:1"
     id="rect2478"
     width="1036.9698"
     height="1033.9669"
     x="-5.522882"
     y="-3.5092502" />
  <path
     id="path293"
     style="fill:#f9f9f9;fill-opacity:1"
     inkscape:label="path293"
     d="M 0 0 L 0 512 L 0 1024 L 512 1024 L 1024 1024 L 1024 512 L 1024 0 L 512 0 L 0 0 z M 526.91406 205.20898 C 533.29413 205.30982 538.68632 205.54402 542.09766 205.92969 C 582.45691 210.49249 620.31177 221.57549 652.19336 238.16211 C 654.98208 239.61296 657.30692 241.10267 659.28906 242.68164 C 659.46314 242.8194 659.6061 242.96348 659.77344 243.10156 C 665.60393 247.95574 667.98317 253.7388 667.99414 262.29102 C 667.99337 262.88299 667.85428 263.32893 667.83203 263.89648 C 667.41135 273.12954 663.50999 279.90076 655.64453 284.42188 C 645.63357 290.17625 638.47755 289.66364 621.93555 282.00781 C 571.96362 258.88023 518.88902 251.89539 466.41797 261.54297 C 396.92201 274.32083 336.09773 315.16603 297.46289 375 C 289.97022 386.60395 277.84091 411.17005 272.73828 425.07422 C 245.00246 500.65169 254.79713 583.78325 299.41602 651.5 C 315.93472 676.56993 338.24356 700.08082 362.55273 718.03906 C 373.8912 726.41527 381.13475 727.77457 384.7832 722.20898 C 386.30544 719.88687 386.57062 715.00956 387.11914 679.04492 C 387.43896 658.07473 387.80634 645.30224 388.70703 635.40625 C 388.70967 635.37728 388.71415 635.35509 388.7168 635.32617 C 389.61836 625.47155 391.0496 618.45723 393.49414 609.02344 C 397.87115 592.13198 405.62883 574.38724 414.54492 560.87695 C 420.85274 551.31889 439.42788 532.66852 449 526.28125 C 469.44854 512.63636 493.50869 504.76164 523 502.06055 C 541.55551 500.36106 597.30738 500.67633 604.53906 502.52148 C 617.10524 505.72773 627.48366 516.35922 630.63867 529.25977 C 634.51864 545.12457 626.36121 562.42418 611.42773 570 C 610.5361 570.45233 609.75605 570.7455 608.92969 571.05273 C 608.30254 571.25372 607.6239 571.43662 606.93359 571.60352 C 602.83918 572.51524 595.10434 572.68857 568 573.13672 C 526.89108 573.81643 519.4703 574.55755 505.23633 579.41211 C 484.31488 586.54745 472.1664 599.59092 465.04492 622.56445 C 461.05332 635.44115 459.99085 647.51003 459.41797 686.5 C 459.1241 706.50089 458.78547 718.23643 457.90039 726.63672 C 457.88505 726.78787 457.87306 726.98387 457.85742 727.13281 C 456.94571 735.48156 455.46653 740.46456 452.88281 746.93359 C 445.42706 765.60101 427.06099 782.26681 410 785.8457 C 394.47675 789.10204 382.53072 787.57474 367.04297 780.35352 C 355.97928 775.19504 351.67993 772.57204 335.5 761.11133 C 292.75858 730.83633 259.20298 691.64848 236.50391 645.5 C 219.18925 610.29836 209.77936 577.98717 205.95898 540.61719 C 204.64382 527.75256 204.88921 502.83102 206.17188 483.88477 C 206.38403 481.46527 206.59867 479.06466 206.86133 476.67188 C 207.19783 473.10356 207.50072 469.18093 207.92188 466.57617 C 216.91714 410.9424 242.15562 355.60813 277.51562 314 C 286.53038 303.39234 305.97643 284.16828 316.35742 275.60156 C 360.54964 239.13275 412.29553 216.07374 469.49023 207.35938 C 479.7284 205.79946 507.77385 204.90648 526.91406 205.20898 z M 710.5 289.5 C 719.68185 289.5 720.93086 289.73891 725.77344 292.42188 C 735.78801 297.97032 742.69815 307.80921 744.93555 318.26367 C 745.14906 320.17889 745.31641 321.97835 745.31641 325.53125 C 745.31641 328.83235 745.15002 330.52357 744.97266 332.37695 C 743.12511 340.53925 739.81819 346.30815 733.0625 353 C 706.11198 379.69587 669.36677 401.55535 632.5 412.82617 C 599.15089 423.02158 571.59925 427.01319 521 428.97852 C 488.12743 430.25532 477.90759 432.82473 469.73828 441.86719 C 462.89739 449.43923 460.26611 457.5281 459.60938 473 L 459.16406 483.5 L 451.75586 487.5 C 427.1121 500.80729 408.58886 516.4478 393.72266 536.5 C 390.52916 540.80752 387.90462 544.31357 387.65234 544.61523 C 387.60355 544.63867 387.52729 544.70682 387.48438 544.71875 C 386.51269 545.49615 386.14554 536.61433 386.05273 509.69727 C 386.02522 501.71713 386.17782 495.48077 386.29102 488.86719 C 386.37712 483.64368 386.46299 479.33142 386.5918 475.23828 C 387.57411 449.95841 390.08731 434.98784 395.16406 422.4043 C 404.44423 399.40191 422.16983 380.66282 444.19141 370.57617 C 465.24734 360.93183 483.14401 357.58864 522.20117 356.00195 C 548.51789 354.93283 571.29718 352.74334 585.5 349.91797 C 625.21742 342.01699 654.53447 327.68861 681.25977 303.11914 C 694.37616 291.06079 697.7287 289.5 710.5 289.5 z M 768.67188 374.24414 C 769.93147 374.18047 771.17406 374.23766 772.37695 374.42383 C 778.51368 375.37358 786.45389 379.59509 789.42188 383.48633 C 796.35722 392.57903 808.62023 428.12883 813.91797 454.5 C 816.59401 467.82082 818.26099 483.26199 818.9668 498.76758 C 819.16895 509.2892 819.0994 520.51137 818.77539 530.9375 C 818.47841 536.43095 818.20846 541.97998 817.60156 546.98828 C 808.74778 620.05281 772.84025 689.22374 718.03711 738.78711 C 693.73941 760.7617 665.9618 778.76512 636.53516 792.1543 C 635.41142 792.6629 634.29896 793.19394 633.16992 793.68945 C 626.79943 796.49829 620.346 799.05568 613.84375 801.41797 C 612.13996 802.03692 610.42896 802.62013 608.7168 803.20898 C 602.03623 805.50288 595.31985 807.64764 588.54883 809.45312 C 588.12507 809.56722 587.69751 809.65342 587.27344 809.76562 C 571.86015 813.80197 556.27297 816.58806 540.72656 817.94727 C 535.15501 818.43438 530.17553 818.78445 525.46289 819.01953 C 524.70267 819.042 524.05685 819.07139 523.27734 819.08984 C 509.53902 819.66877 498.07807 819.16596 482.5 817.43555 C 470.97652 816.15552 446.79248 811.58936 440.93359 809.58789 C 440.14463 809.31838 437.52242 808.59241 435.10547 807.97266 L 431.25781 806.98633 C 431.14928 806.90873 430.93795 806.81716 430.88477 806.74609 L 438.55273 802.375 C 453.41319 793.90525 465.36444 782.56285 473.16016 769.5293 C 474.47482 767.33132 475.28075 766.20434 476.04492 765.44141 C 476.95372 764.69381 477.76498 764.46692 478.72852 764.46094 C 478.8258 764.47743 478.89473 764.45671 478.99805 764.47852 C 497.78828 768.44397 533.58352 767.37382 561.19727 762.02148 C 609.68044 752.62406 655.48975 728.21426 690.89062 692.91211 C 742.26272 641.68324 769.14353 574.65462 766.65234 504 C 765.56278 473.09798 759.87849 445.69501 748.88477 418.34766 C 743.17243 404.13801 742.45512 396.8201 746.04883 389.39648 C 750.11884 380.98897 759.85474 374.68987 768.67188 374.24414 z " />
</svg>
