<?xml version="1.0" encoding="UTF-8" standalone="no"?>
<!-- Created with Inkscape (http://www.inkscape.org/) -->

<svg
   version="1.1"
   id="svg2"
   width="1329.9473"
   height="798.10156"
   viewBox="0 0 1329.9473 798.10156"
   sodipodi:docname="fulver-light-text.inkscape.svg"
   inkscape:version="1.2.2 (b0a8486541, 2022-12-01)"
   xmlns:inkscape="http://www.inkscape.org/namespaces/inkscape"
   xmlns:sodipodi="http://sodipodi.sourceforge.net/DTD/sodipodi-0.dtd"
   xmlns="http://www.w3.org/2000/svg"
   xmlns:svg="http://www.w3.org/2000/svg">
  <defs
     id="defs6" />
  <sodipodi:namedview
     id="namedview4"
     pagecolor="#3d434f"
     bordercolor="#000000"
     borderopacity="0.25"
     inkscape:showpageshadow="2"
     inkscape:pageopacity="1"
     inkscape:pagecheckerboard="0"
     inkscape:deskcolor="#ffffff"
     showgrid="false"
     inkscape:zoom="0.69490614"
     inkscape:cx="939.69525"
     inkscape:cy="390.70025"
     inkscape:window-width="2508"
     inkscape:window-height="1259"
     inkscape:window-x="0"
     inkscape:window-y="0"
     inkscape:window-maximized="1"
     inkscape:current-layer="svg2" />
  <rect
     style="fill:#3d434f;stroke-width:126.396;fill-opacity:1"
     id="rect286"
     width="1332.9852"
     height="800.01886"
     x="-1.6321417"
     y="-0.64681816" />
  <path
     id="path1580"
     style="display:inline;fill:#f9f9f9;fill-opacity:1;stroke-width:1.01756"
     d="m 1329.9472,5e-8 -138.1328,0.6757812 C 1115.8412,1.0479739 816.60366,1.3532881 526.8418,1.3535156 H 5e-8 V 399.72656 798.10156 H 664.97461 1329.9472 V 399.05078 Z M 216.04101,252.0039 c 18.24805,-0.0554 36.07129,3.32329 52.51368,10.25782 17.07586,7.20169 21.27057,11.23101 19.99609,19.20117 -0.87571,5.47637 -2.16073,7.61148 -5.98828,9.94531 -4.42874,2.7004 -9.74967,2.48592 -17.26367,-0.69531 -19.55718,-8.27998 -34.36559,-11.56641 -52.11914,-11.56641 -18.98888,0 -36.96584,3.9611 -51.89649,11.4336 -32.37645,16.20377 -54.9876,41.82753 -64.888669,73.5332 -4.310633,13.80371 -5.12469,20.98269 -4.5625,40.27539 0.447221,15.34727 0.882684,18.94989 3.248047,26.86133 5.463172,18.27267 13.200912,32.82888 24.728512,46.51953 10.60473,12.59463 26.49136,24.72443 29.7461,22.71289 0.57498,-0.35536 1.0549,-4.16835 1.0664,-8.47266 0.0372,-13.90896 1.92038,-37.63368 3.54883,-44.69921 0.87223,-3.78448 3.67125,-11.17974 6.2207,-16.4336 8.21406,-16.92727 22.11265,-28.24068 41.64063,-33.89453 7.47175,-2.16327 10.02027,-2.34375 33.10351,-2.34375 h 25.00586 l 3.59571,2.74219 c 4.5583,3.47494 6.93554,8.46219 6.93554,14.55664 0,6.39077 -2.50984,11.31253 -7.42382,14.56445 -3.92618,2.59822 -4.68381,2.70459 -24.51563,3.39649 -32.00821,1.11671 -39.35038,4.06902 -45.94727,18.47851 -2.94126,6.42457 -3.7573,12.91828 -5.43164,43.24024 -0.86335,15.63509 -1.10037,16.96749 -4.12304,23.10742 -3.33418,6.77268 -8.78078,12.31462 -15.00782,15.26953 -1.94227,0.92168 -6.81689,1.91204 -10.83203,2.20117 -7.02052,0.50555 -7.62389,0.36252 -15.75781,-3.74023 -11.79231,-5.94805 -22.27569,-14.15525 -35.3164,-27.64453 -16.539816,-17.10876 -26.856394,-33.90968 -34.001957,-55.37891 -12.289942,-36.9258 -9.602126,-78.02265 7.314453,-111.8457 9.859473,-19.71305 29.422294,-42.33528 46.041014,-53.24219 28.36261,-18.61444 59.95769,-28.24756 90.37109,-28.33985 z m 92.10938,40.3711 c 10.82448,0 19.91225,11.20426 17.87891,22.04297 -1.41597,7.54774 -18.32767,22.13334 -35.80469,30.88086 -18.61376,9.31649 -35.68131,13.2672 -65.85156,15.23828 -19.68949,1.28634 -23.43451,1.80039 -27.7793,3.82031 -4.43223,2.06058 -7.45957,8.14429 -8.11524,16.3125 -0.5097,6.34972 -0.57619,6.47255 -4.69726,8.54883 -2.29959,1.15859 -6.99711,4.10149 -10.4375,6.53906 -3.4404,2.43756 -9.94534,8.41443 -14.45703,13.28125 l -8.20313,8.84766 0.54102,-21.29102 c 0.69014,-27.09636 1.6836,-34.85748 5.49804,-43.01172 3.52525,-7.53599 12.20308,-16.55055 19.9629,-20.73828 7.91751,-4.27282 20.35752,-6.84651 38.52929,-7.9707 35.95489,-2.22431 55.89048,-7.76494 71.56641,-19.88672 15.54925,-12.02382 16.54879,-12.61328 21.36914,-12.61328 z m 192.99805,11.78711 c 18.94908,0.0442 27.83498,3.51226 30.04687,11.72656 1.6657,6.18593 0.27516,12.81398 -3.5664,17.00586 l -3.25391,3.55273 -12.63086,0.6836 c -16.83163,0.91093 -18.28463,1.93217 -19.77149,13.89258 l -0.65039,5.22656 10.50977,0.69336 c 13.10891,0.86535 16.24406,1.82927 20.04492,6.1582 3.82848,4.3604 5.23156,12.86574 2.8711,17.4043 -3.7592,7.22795 -9.91137,9.55469 -25.26563,9.55469 h -8.00195 l -0.006,41.97461 c -0.004,27.17543 -0.39737,43.40778 -1.11719,46.04296 -1.39768,5.11677 -5.20034,10.22034 -9.13281,12.25391 -7.18145,3.71367 -19.62065,2.58966 -26.31641,-2.37695 -5.1202,-3.79795 -5.41149,-6.43923 -5.92383,-53.76172 l -0.47461,-43.88477 -7.87304,-0.45703 c -12.72993,-0.73693 -17.98753,-6.33294 -17.12696,-18.23047 0.68953,-9.53257 5.37865,-13.27134 18.36524,-14.64843 l 6.86914,-0.72852 0.008,-3.69727 c 0.0273,-13.11968 5.15402,-26.76533 13.00977,-34.62109 9.74247,-9.74247 21.3727,-13.80567 39.38672,-13.76367 z m 266.03711,0.0625 c 8.20959,0.014 12.12405,1.38726 15.96093,5.60547 5.70758,6.27481 5.46108,2.44479 5.45508,85.01367 -0.003,44.28498 -0.4183,78.63024 -0.99219,82.13476 -1.13205,6.9129 -4.21103,10.92005 -10.70312,13.92579 -4.36974,2.02311 -12.97718,2.40909 -18.43555,0.82617 -1.74461,-0.50594 -5.01165,-2.91655 -7.25976,-5.35547 l -4.08789,-4.4336 -0.73243,-21.77343 c -0.40265,-11.97546 -0.56905,-49.24682 -0.37109,-82.82617 0.35007,-59.38621 0.41713,-61.15104 2.44727,-64.61524 3.33901,-5.69764 9.54732,-8.51765 18.71875,-8.50195 z m -427.26954,28.97461 c 1.4243,0.22548 2.76102,0.73865 3.93164,1.55859 6.39963,4.48247 15.78105,32.86317 17.43946,52.75781 2.67252,32.06026 -4.39039,59.29656 -23.67774,91.31446 -5.31638,8.82545 -18.81489,24.71797 -26.74414,31.48437 -8.90395,7.59818 -23.12815,17.1998 -32.37695,21.85742 -10.39124,5.23295 -29.55891,11.339 -41.01953,13.06641 -17.3544,2.61578 -52.17938,1.00886 -61.6211,-2.84375 l -3.2871,-1.3418 7.66601,-5.66797 c 4.31297,-3.18958 9.05439,-7.76634 10.8418,-10.46484 l 3.17773,-4.79687 17.09766,-0.26758 c 24.78928,-0.38864 40.6744,-3.95672 57.125,-12.83008 29.74408,-16.04374 48.07116,-37.31357 59.13281,-68.63086 5.03574,-14.25698 6.26458,-21.74813 6.26758,-38.18359 0.003,-16.46517 -1.44661,-25.52985 -6.41992,-40.16797 -3.87388,-11.40209 -4.07564,-17.88944 -0.67383,-21.53125 3.79941,-4.06751 8.86775,-5.98896 13.14062,-5.3125 z m 903.83009,21.65429 c 5.8289,-0.10554 11.3101,1.08328 15.5586,3.70899 6.5536,4.05036 8.7104,16.63536 4.0312,23.52148 -3.6819,5.41829 -9.437,7.76684 -20.8984,8.5293 -11.9136,0.79254 -15.4465,1.83013 -20.0801,5.89844 -6.5524,5.75311 -6.6866,6.57682 -7.4004,45.44336 -0.7061,38.4462 -0.8474,39.36706 -7.0117,45.53125 -1.782,1.78205 -4.9382,3.71066 -7.0137,4.28711 -7.1336,1.98121 -16.7235,0.755 -21.457,-2.74414 -1.4678,-1.0851 -3.8138,-3.99206 -5.2129,-6.46094 l -2.543,-4.49024 -0.2969,-53.64453 c -0.2672,-48.31482 -0.1292,-53.97602 1.3907,-56.98242 4.0426,-7.99657 9.2842,-11.22461 18.2265,-11.22461 9.2144,0 17.229,4.77877 19.3789,11.55274 0.5647,1.77883 1.0916,1.5574 5.3848,-2.26172 7.5478,-6.71456 18.2285,-10.48816 27.9434,-10.66407 z m -178.3633,0.50977 c 21.2092,0.0156 34.4557,4.90324 46.9219,17.31641 11.9801,11.92935 17.2051,24.80432 17.1621,42.29101 -0.028,11.60953 -2.0184,16.60277 -7.7344,19.4082 -3.6233,1.77828 -7.1193,1.96681 -42.8672,2.3125 -25.9157,0.25062 -38.9199,0.73009 -38.9199,1.43165 0,2.99085 2.6698,9.22688 5.334,12.45898 4.9198,5.96871 11.934,8.89314 22.6992,9.46094 11.1824,0.58979 16.988,-0.56904 29.459,-5.87696 14.9644,-6.36917 24.2291,-5.27577 28.3183,3.3418 2.091,4.40635 2.1914,11.07162 0.2246,14.875 -3.6224,7.00499 -16.6535,14.61522 -31.5058,18.40039 -6.6231,1.68796 -11.1277,2.03449 -25.4375,1.95899 -18.1007,-0.0955 -20.0878,-0.38871 -31.3321,-4.61133 -19.5287,-7.33365 -33.1439,-22.46874 -38.65817,-42.97656 -3.07813,-11.44836 -3.05627,-30.35268 0.047,-41.31055 8.74277,-30.87235 32.85167,-48.50497 66.28907,-48.48047 z m -115.99999,0.68555 c 7.63375,0.0806 11.49847,1.7567 16.07813,6.97265 3.80968,4.33899 4.98477,9.67511 3.41797,15.53321 -0.63915,2.38971 -5.46793,13.62519 -10.72852,24.96875 -5.2606,11.34355 -13.33568,28.86759 -17.94531,38.9414 -9.97248,21.79365 -17.80518,37.61424 -20.52539,41.46094 -1.08684,1.5369 -4.00494,3.98526 -6.48633,5.43945 -3.5598,2.08618 -6.17538,2.71934 -12.39844,3.00782 -14.10059,0.65365 -20.63535,-1.97531 -26.58984,-10.70118 -3.05534,-4.47736 -40.55488,-84.672 -46.25,-98.9082 -3.31107,-8.27671 -3.38584,-11.2941 -0.42578,-17.16406 3.4403,-6.82236 8.97636,-9.33546 19.66406,-8.92578 9.72106,0.37263 13.79909,2.57225 18.1582,9.78906 1.50683,2.49468 9.23978,20.84755 17.18359,40.78516 7.94384,19.93761 14.82388,36.37683 15.29102,36.53125 0.46713,0.15443 7.8514,-17.17773 16.4082,-38.51563 8.55682,-21.33791 16.45721,-40.01292 17.55664,-41.5 3.64802,-4.93419 10.16878,-7.79324 17.5918,-7.71484 z M 676.67578,356.5 c 9.32008,-0.0185 13.36204,1.77648 18.10937,8.04492 l 3.41016,4.50195 -0.32812,55.53321 c -0.3025,50.92539 -0.48163,55.80906 -2.14063,58.8457 -5.59451,10.24028 -23.23951,12.27416 -31.84375,3.66992 -1.90192,-1.90192 -3.73985,-4.5801 -4.08398,-5.95117 l -0.625,-2.49414 -5.75,3.89648 c -8.56982,5.80715 -13.86723,8.24504 -21.37305,9.83594 -22.15675,4.69624 -49.35143,-3.41766 -60.51563,-18.05469 -4.31558,-5.65804 -8.90246,-16.57709 -9.88867,-23.54101 -1.5139,-10.69004 -1.63253,-78.87369 -0.14453,-83.19922 1.45085,-4.2175 5.55208,-8.46956 9.66992,-10.02539 4.04873,-1.52972 16.41682,-1.34311 20.36524,0.30664 5.23734,2.1883 8.5843,6.9277 9.2539,13.10156 0.31929,2.94397 0.99846,20.30487 1.50977,38.58008 0.8283,29.60424 1.14932,33.7217 2.93555,37.75977 3.57052,8.07179 10.98789,11.94335 22.88476,11.94335 12.24689,1e-5 19.40804,-3.6542 24.56836,-12.53906 2.43908,-4.19951 2.47937,-4.69037 3.35352,-41.45117 0.82068,-34.51272 1.03237,-37.45251 2.92968,-40.70117 3.25543,-5.57405 8.68103,-8.0446 17.70313,-8.0625 z" />
  <path
     style="display:inline;fill:#f9f9f9;fill-opacity:1;stroke-width:1.01756"
     d="m 1040.3504,407.96658 c -0.3013,-0.78504 0.4649,-3.78131 1.7026,-6.65839 6.3956,-14.86702 27.5174,-20.26561 39.1902,-10.01676 5.6547,4.96485 10.1323,15.46173 7.3486,17.22721 -0.7321,0.46426 -11.7626,0.85112 -24.5123,0.85969 -18.9629,0.0127 -23.2811,-0.24417 -23.7291,-1.41175 z"
     id="path1582" />
</svg>
